<svg xmlns="http://www.w3.org/2000/svg" viewBox="0 0 20 20" fill="currentColor" className="w-5 h-5">
                        <path d="M9.36443 9.6846C10.6218 9.6846 11.7104 9.23363 12.6002 8.34388C13.4897 7.45427 13.9408 6.36578 13.9408 5.10827C13.9408 3.85119 13.4898 2.76255 12.6 
1.87266C11.7103 0.983192 10.6217 0.532227 9.36443 0.532227C8.10691 0.532227 7.01842 0.983192 6.12881 1.8728C5.2392 2.76241 4.78809 3.85105 4.78809 5.10827C4.78809 
6.36578 5.2392 7.45442 6.12881 8.34403C7.01871 9.23349 8.10735 9.6846 9.36443 9.6846V9.6846ZM6.91622 2.66007C7.59883 1.97746 8.39958 1.64565 9.36443 1.64565C10.3291 
1.64565 11.13 1.97746 11.8128 2.66007C12.4954 3.34282 12.8273 4.14372 12.8273 5.10827C12.8273 6.07311 12.4954 6.87386 11.8128 7.55661C11.13 8.23937 10.3291 8.57117 
9.36443 8.57117C8.39987 8.57117 7.59912 8.23922 6.91622 7.55661C6.23347 6.874 5.90151 6.07311 5.90151 5.10827C5.90151 4.14372 6.23347 3.34282 6.91622 2.66007Z" fill="#BCBCBC" />
                        <path d="M17.372 15.1423C17.3463 14.772 17.2944 14.3682 17.218 13.9417C17.1409 13.5121 17.0416 13.1059 16.9227 12.7347C16.7998 12.351 16.633 11.972 16.4264 
11.6089C16.2123 11.232 15.9607 10.9038 15.6783 10.6338C15.383 10.3513 15.0215 10.1241 14.6034 9.95842C14.1868 9.7936 13.7251 9.71011 13.2312 9.71011C13.0373 9.71011 
12.8497 9.78969 12.4874 10.0255C12.2645 10.1709 12.0037 10.3391 11.7126 10.5251C11.4638 10.6836 11.1266 10.8322 10.7101 10.9667C10.3038 11.0982 9.89124 11.1649 
9.48391 11.1649C9.07687 11.1649 8.66431 11.0982 8.25771 10.9667C7.84167 10.8324 7.50436 10.6838 7.2559 10.5252C6.96758 10.341 6.70665 10.1728 6.48037 10.0254C6.11841 
9.78954 5.93083 9.70996 5.73688 9.70996C5.24286 9.70996 4.78131 9.7936 4.36485 9.95856C3.94707 10.124 3.5854 10.3511 3.28983 10.6339C3.00745 10.9041 2.75581 11.2322 
2.54185 11.6089C2.33557 11.972 2.16858 12.3508 2.04565 12.7348C1.92693 13.106 1.82764 13.5121 1.75052 13.9417C1.67398 14.3676 1.62223 14.7716 1.59657 15.1427C1.57135 
15.5055 1.55859 15.8832 1.55859 16.2647C1.55859 17.2565 1.87388 18.0594 2.49561 18.6516C3.10965 19.2359 3.922 19.5322 4.91018 19.5322H14.0588C15.0467 19.5322 15.859 
19.2359 16.4732 18.6516C17.0951 18.0598 17.4104 17.2566 17.4104 16.2645C17.4102 15.8817 17.3973 15.5041 17.372 15.1423V15.1423ZM15.7055 17.8449C15.2998 18.231 14.7611 
18.4188 14.0587 18.4188H4.91018C4.20757 18.4188 3.6689 18.231 3.26331 17.845C2.86539 17.4662 2.67202 16.9492 2.67202 16.2647C2.67202 15.9087 2.68376 15.5571 2.70724 
15.2197C2.73015 14.8886 2.77697 14.5249 2.84641 14.1384C2.91497 13.7568 3.00224 13.3986 3.10603 13.0743C3.20561 12.7634 3.34144 12.4555 3.50988 12.1589C3.67064 11.8762 
3.85561 11.6337 4.05971 11.4383C4.25062 11.2555 4.49125 11.1059 4.77479 10.9937C5.03702 10.8899 5.33172 10.8331 5.65164 10.8245C5.69064 10.8453 5.76007 10.8848 5.87256 
10.9582C6.10145 11.1074 6.36527 11.2775 6.65693 11.4638C6.98569 11.6734 7.40926 11.8627 7.91531 12.0261C8.43267 12.1934 8.96032 12.2783 9.48405 12.2783C10.0078 12.2783 
10.5356 12.1934 11.0527 12.0262C11.5591 11.8626 11.9826 11.6734 12.3118 11.4635C12.6102 11.2728 12.8667 11.1075 13.0956 10.9582C13.208 10.885 13.2775 10.8453 13.3165 
10.8245C13.6365 10.8331 13.9312 10.8899 14.1936 10.9937C14.477 11.1059 14.7176 11.2557 14.9085 11.4383C15.1126 11.6336 15.2976 11.8761 15.4584 12.159C15.627 12.4555 
15.7629 12.7635 15.8624 13.0742C15.9663 13.3989 16.0537 13.7569 16.1221 14.1383C16.1914 14.5255 16.2384 14.8893 16.2613 15.2198V15.2201C16.2849 15.5563 16.2968 15.9076 
16.297 16.2647C16.2968 16.9493 16.1034 17.4662 15.7055 17.8449V17.8449Z" fill="#BCBCBC" />
                    </svg>